<svg width="50" height="55" viewBox="0 0 50 55" fill="none" xmlns="http://www.w3.org/2000/svg">
<path d="M27.7072 11.7857L28.3294 15.7143H44.0795L42.7729 23.5714H24.2668L23.0513 15.7143H23.0658L22.4437 11.7857L22.4363 11.738L20.9596 2.19337L20.6202 0H0V3.92857H15.9662L17.1818 11.7857H2.2664L8.88137 51.5587C9.04107 52.5082 9.65572 53.3814 10.6102 54.0149C11.5648 54.6483 12.7937 54.9985 14.067 55H38.1994C39.4728 54.9987 40.7019 54.6485 41.6566 54.015C42.6112 53.3816 43.226 52.5083 43.3857 51.5587L50 11.7857H27.7072ZM8.18688 15.7143H17.7895L19.005 23.5714H9.49354L8.18688 15.7143ZM38.2017 51.0714H14.0668L10.1469 27.5H19.6128L21.8918 42.2321H27.1535L24.8744 27.5H42.1202L38.2017 51.0714Z" fill="white"/>
</svg>
