<svg width="51" height="56" viewBox="0 0 51 56" fill="none" xmlns="http://www.w3.org/2000/svg">
<path d="M5.375 50.125C4 50.125 2.8225 49.6358 1.8425 48.6575C0.864166 47.6775 0.375 46.5 0.375 45.125V10.125C0.375 8.75 0.864166 7.5725 1.8425 6.5925C2.8225 5.61417 4 5.125 5.375 5.125H15.875C16.4167 3.625 17.3233 2.41667 18.595 1.5C19.865 0.583333 21.2917 0.125 22.875 0.125C24.4583 0.125 25.8858 0.583333 27.1575 1.5C28.4275 2.41667 29.3333 3.625 29.875 5.125H40.375C41.75 5.125 42.9275 5.61417 43.9075 6.5925C44.8858 7.5725 45.375 8.75 45.375 10.125V26.875C44.5833 26.5 43.7708 26.1767 42.9375 25.905C42.1042 25.635 41.25 25.4375 40.375 25.3125V10.125H5.375V45.125H20.5C20.625 46.0417 20.8233 46.9167 21.095 47.75C21.365 48.5833 21.6875 49.375 22.0625 50.125H5.375ZM5.375 42.625V45.125V10.125V25.3125V25.125V42.625ZM10.375 40.125H20.5625C20.6875 39.25 20.885 38.3958 21.155 37.5625C21.4267 36.7292 21.7292 35.9167 22.0625 35.125H10.375V40.125ZM10.375 30.125H25.625C26.9583 28.875 28.4475 27.8333 30.0925 27C31.7392 26.1667 33.5 25.6042 35.375 25.3125V25.125H10.375V30.125ZM10.375 20.125H35.375V15.125H10.375V20.125ZM22.875 8.25C23.4167 8.25 23.865 8.0725 24.22 7.7175C24.5733 7.36417 24.75 6.91667 24.75 6.375C24.75 5.83333 24.5733 5.385 24.22 5.03C23.865 4.67667 23.4167 4.5 22.875 4.5C22.3333 4.5 21.8858 4.67667 21.5325 5.03C21.1775 5.385 21 5.83333 21 6.375C21 6.91667 21.1775 7.36417 21.5325 7.7175C21.8858 8.0725 22.3333 8.25 22.875 8.25ZM37.875 55.125C34.4167 55.125 31.4692 53.9067 29.0325 51.47C26.5942 49.0317 25.375 46.0833 25.375 42.625C25.375 39.1667 26.5942 36.2183 29.0325 33.78C31.4692 31.3433 34.4167 30.125 37.875 30.125C41.3333 30.125 44.2817 31.3433 46.72 33.78C49.1567 36.2183 50.375 39.1667 50.375 42.625C50.375 46.0833 49.1567 49.0317 46.72 51.47C44.2817 53.9067 41.3333 55.125 37.875 55.125ZM36.625 50.125H39.125V43.875H45.375V41.375H39.125V35.125H36.625V41.375H30.375V43.875H36.625V50.125Z" fill="white"/>
</svg>
