<svg width="51" height="56" viewBox="0 0 51 56" fill="none" xmlns="http://www.w3.org/2000/svg">
<path d="M6.75 55.9375C5.03125 55.9375 3.56042 55.3225 2.3375 54.0926C1.1125 52.8606 0.5 51.3804 0.5 49.6518V21.3661C0.5 20.3708 0.721874 19.428 1.16562 18.5375C1.60729 17.647 2.21875 16.9137 3 16.3375L21.75 2.19464C22.8438 1.35655 24.0938 0.9375 25.5 0.9375C26.9062 0.9375 28.1562 1.35655 29.25 2.19464L48 16.3375C48.7813 16.9137 49.3938 17.647 49.8375 18.5375C50.2792 19.428 50.5 20.3708 50.5 21.3661V49.6518C50.5 51.3804 49.8885 52.8606 48.6656 54.0926C47.4406 55.3225 45.9688 55.9375 44.25 55.9375H6.75ZM19.25 33.9375V44.9375C19.25 45.3565 19.4062 45.7232 19.7187 46.0375C20.0312 46.3518 20.3958 46.5089 20.8125 46.5089C21.2292 46.5089 21.5938 46.3518 21.9063 46.0375C22.2188 45.7232 22.375 45.3565 22.375 44.9375V33.9375C23.6771 33.9375 24.7833 33.4786 25.6938 32.5609C26.6063 31.6453 27.0625 30.5327 27.0625 29.2232V21.3661C27.0625 20.947 26.9063 20.5804 26.5938 20.2661C26.2813 19.9518 25.9167 19.7946 25.5 19.7946C25.0833 19.7946 24.7187 19.9518 24.4062 20.2661C24.0937 20.5804 23.9375 20.947 23.9375 21.3661V29.2232H22.375V21.3661C22.375 20.947 22.2188 20.5804 21.9063 20.2661C21.5938 19.9518 21.2292 19.7946 20.8125 19.7946C20.3958 19.7946 20.0312 19.9518 19.7187 20.2661C19.4062 20.5804 19.25 20.947 19.25 21.3661V29.2232H17.6875V21.3661C17.6875 20.947 17.5313 20.5804 17.2188 20.2661C16.9063 19.9518 16.5417 19.7946 16.125 19.7946C15.7083 19.7946 15.3437 19.9518 15.0312 20.2661C14.7187 20.5804 14.5625 20.947 14.5625 21.3661V29.2232C14.5625 30.5327 15.0187 31.6453 15.9312 32.5609C16.8417 33.4786 17.9479 33.9375 19.25 33.9375ZM33.3125 46.5089C33.7292 46.5089 34.0938 46.3518 34.4063 46.0375C34.7188 45.7232 34.875 45.3565 34.875 44.9375V21.6804C34.875 21.2613 34.7188 20.8946 34.4063 20.5804C34.0938 20.2661 33.7292 20.1089 33.3125 20.1089C31.8542 20.1089 30.7083 20.7113 29.875 21.9161C29.0417 23.1208 28.625 24.5089 28.625 26.0804V33.9375C28.625 34.3565 28.7812 34.7232 29.0937 35.0375C29.4062 35.3518 29.7708 35.5089 30.1875 35.5089H31.75V44.9375C31.75 45.3565 31.9062 45.7232 32.2187 46.0375C32.5312 46.3518 32.8958 46.5089 33.3125 46.5089Z" fill="white"/>
</svg>
